<?xml version="1.0" encoding="UTF-8"?>
<svg id="Capa_2" data-name="Capa 2" xmlns="http://www.w3.org/2000/svg" viewBox="0 0 113 46">
  <defs>
    <style>
      .cls-1 {
        fill: #1466c2;
      }
    </style>
  </defs>
  <g id="Capa_1-2" data-name="Capa 1">
    <g>
      <g>
        <path class="cls-1" d="M.54,18.21c-.15,0-.27-.05-.38-.16-.11-.11-.16-.23-.16-.38V4.89c0-.14.05-.27.16-.38.11-.11.23-.16.38-.16h5.71c1.24,0,2.35.21,3.33.62.98.42,1.76,1.03,2.35,1.83.59.81.9,1.8.94,2.99.03.57.04,1.07.04,1.49s-.01.91-.04,1.45c-.05,1.24-.36,2.27-.91,3.08s-1.31,1.41-2.27,1.8c-.96.39-2.07.58-3.34.58H.54ZM4.96,14.35h1.29c.29,0,.55-.06.78-.17.23-.11.42-.29.57-.52.15-.24.22-.54.24-.91.03-.38.04-.73.05-1.03,0-.3,0-.61,0-.92,0-.31-.02-.64-.05-1-.03-.55-.2-.96-.53-1.21-.32-.25-.71-.38-1.16-.38h-1.19v6.14Z"/>
        <path class="cls-1" d="M13.67,18.21c-.12,0-.22-.04-.31-.13-.09-.09-.13-.19-.13-.31,0-.05,0-.1.02-.14l4.42-12.63c.04-.15.13-.29.28-.44.15-.15.35-.22.61-.22h4.3c.26,0,.47.07.62.22.15.15.24.29.28.44l4.42,12.63s.02.09.02.14c0,.12-.04.22-.13.31s-.19.13-.31.13h-3.67c-.25,0-.43-.06-.55-.17-.11-.11-.19-.22-.23-.33l-.48-1.31h-4.27l-.48,1.31c-.04.11-.11.21-.22.33-.11.11-.29.17-.56.17h-3.67ZM19.6,12.55h2.24l-1.13-3.68-1.11,3.68Z"/>
        <path class="cls-1" d="M29.84,18.21c-.15,0-.27-.05-.38-.16-.11-.11-.16-.23-.16-.38V4.89c0-.14.05-.27.16-.38.11-.11.23-.16.38-.16h3.13c.26,0,.46.07.6.22.13.15.22.25.26.32l2.88,4.75,2.88-4.75c.04-.07.13-.17.26-.32.13-.15.33-.22.6-.22h3.13c.15,0,.27.05.38.16.11.11.16.23.16.38v12.79c0,.15-.05.27-.16.38-.11.11-.23.16-.38.16h-3.59c-.15,0-.27-.05-.38-.16-.11-.11-.16-.23-.16-.38v-5.42l-1.31,2.14c-.07.11-.16.21-.27.33s-.27.17-.47.17h-1.39c-.2,0-.35-.06-.47-.17-.11-.11-.2-.22-.27-.33l-1.31-2.14v5.42c0,.15-.05.27-.16.38-.11.11-.23.16-.38.16h-3.59Z"/>
        <path class="cls-1" d="M46.82,18.21c-.15,0-.27-.05-.38-.16-.11-.11-.16-.23-.16-.38V4.89c0-.14.05-.27.16-.38.11-.11.23-.16.38-.16h4.05c.15,0,.27.05.38.16.11.11.16.23.16.38v12.79c0,.15-.05.27-.16.38-.11.11-.23.16-.38.16h-4.05Z"/>
        <path class="cls-1" d="M52.93,18.21c-.12,0-.22-.04-.31-.13-.09-.09-.13-.19-.13-.31,0-.05,0-.1.02-.14l4.42-12.63c.04-.15.13-.29.28-.44.15-.15.35-.22.61-.22h4.3c.26,0,.47.07.62.22.15.15.24.29.28.44l4.42,12.63s.02.09.02.14c0,.12-.04.22-.13.31s-.19.13-.31.13h-3.67c-.25,0-.43-.06-.55-.17-.11-.11-.19-.22-.23-.33l-.48-1.31h-4.27l-.48,1.31c-.04.11-.11.21-.22.33-.11.11-.29.17-.56.17h-3.67ZM58.14,3.37c-.21,0-.32-.11-.32-.32,0-.11.03-.19.1-.26l1.98-2.41c.15-.17.27-.28.37-.32.1-.04.22-.06.37-.06h3.89c.25,0,.38.13.38.4,0,.09-.03.17-.1.24l-2.92,2.4c-.11.09-.22.17-.34.24-.12.07-.28.1-.5.1h-2.92ZM58.86,12.55h2.24l-1.13-3.68-1.11,3.68Z"/>
        <path class="cls-1" d="M69.09,18.21c-.15,0-.27-.05-.38-.16-.11-.11-.16-.23-.16-.38V4.89c0-.14.05-.27.16-.38.11-.11.23-.16.38-.16h3.13c.26,0,.46.06.58.18.12.12.2.21.24.28l3.35,5.48v-5.4c0-.14.05-.27.16-.38.11-.11.23-.16.38-.16h3.59c.15,0,.27.05.38.16.11.11.16.23.16.38v12.79c0,.15-.05.27-.16.38-.11.11-.23.16-.38.16h-3.13c-.26,0-.46-.06-.58-.19-.12-.13-.2-.21-.24-.27l-3.35-5.05v4.97c0,.15-.05.27-.16.38-.11.11-.23.16-.38.16h-3.59Z"/>
      </g>
      <g>
        <path class="cls-1" d="M11,46c-2.13,0-3.99-.33-5.59-.98-1.6-.65-2.86-1.63-3.78-2.94-.92-1.31-1.43-2.93-1.52-4.86-.02-.89-.03-1.83-.03-2.83s.01-1.96.03-2.89c.09-1.91.59-3.52,1.5-4.85.91-1.32,2.17-2.33,3.78-3.02,1.61-.69,3.48-1.04,5.61-1.04s4,.35,5.61,1.04c1.61.69,2.87,1.7,3.8,3.02.92,1.32,1.42,2.94,1.48,4.85.04.93.07,1.9.07,2.89s-.02,1.94-.07,2.83c-.09,1.93-.59,3.55-1.52,4.86-.92,1.31-2.18,2.29-3.78,2.94-1.6.65-3.46.98-5.59.98ZM11,39.66c.72,0,1.29-.21,1.73-.63.43-.42.66-1.09.68-2,.04-.93.07-1.85.07-2.76s-.02-1.81-.07-2.7c-.02-.61-.14-1.11-.34-1.5-.21-.39-.48-.68-.83-.86-.35-.18-.76-.28-1.24-.28s-.86.09-1.22.28c-.36.18-.64.47-.85.86-.21.39-.32.89-.34,1.5-.02.89-.03,1.79-.03,2.7s.01,1.83.03,2.76c.04.91.28,1.58.7,2,.42.42.99.63,1.71.63Z"/>
        <path class="cls-1" d="M30.59,45.67c-.24,0-.45-.09-.62-.26-.17-.17-.26-.38-.26-.62v-14.9h-5.41c-.24,0-.45-.09-.62-.26-.17-.17-.26-.38-.26-.62v-5.24c0-.24.09-.44.26-.62.17-.17.38-.26.62-.26h19.1c.24,0,.45.09.62.26.17.17.26.38.26.62v5.24c0,.24-.09.44-.26.62-.17.17-.38.26-.62.26h-5.41v14.9c0,.24-.09.44-.26.62-.17.17-.38.26-.62.26h-6.52Z"/>
        <path class="cls-1" d="M47.51,45.67c-.24,0-.45-.09-.62-.26-.17-.17-.26-.38-.26-.62v-21.01c0-.24.09-.44.26-.62.17-.17.38-.26.62-.26h16.72c.24,0,.45.09.62.26.17.17.26.38.26.62v4.59c0,.24-.09.44-.26.62-.17.17-.38.26-.62.26h-9.78v2.05h9.06c.24,0,.45.09.62.26.17.17.26.38.26.62v4.23c0,.24-.09.44-.26.62-.17.17-.38.26-.62.26h-9.06v2.05h10.04c.24,0,.45.09.62.26.17.17.26.38.26.62v4.59c0,.24-.09.44-.26.62-.17.17-.38.26-.62.26h-16.98Z"/>
        <path class="cls-1" d="M69.25,45.67c-.24,0-.45-.09-.62-.26-.17-.17-.26-.38-.26-.62v-21.01c0-.24.09-.44.26-.62.17-.17.38-.26.62-.26h9.65c3.13,0,5.57.7,7.33,2.11,1.76,1.41,2.64,3.34,2.64,5.79,0,1.45-.33,2.72-.99,3.79-.66,1.07-1.51,1.94-2.53,2.59l4.01,7.42c.07.13.1.25.1.36,0,.2-.07.36-.21.5-.14.14-.31.21-.51.21h-6.68c-.43,0-.76-.11-.98-.33-.22-.22-.36-.4-.42-.55l-2.8-6.21h-1.34v6.21c0,.24-.09.44-.26.62-.17.17-.38.26-.62.26h-6.39ZM76.52,32.4h2.38c.5,0,.87-.17,1.12-.5.25-.34.37-.72.37-1.15s-.11-.84-.34-1.22c-.23-.38-.61-.57-1.16-.57h-2.38v3.45Z"/>
        <path class="cls-1" d="M102.05,46c-2.13,0-3.99-.33-5.59-.98-1.6-.65-2.86-1.63-3.78-2.94-.92-1.31-1.43-2.93-1.52-4.86-.02-.89-.03-1.83-.03-2.83s.01-1.96.03-2.89c.09-1.91.59-3.52,1.5-4.85.91-1.32,2.17-2.33,3.78-3.02,1.61-.69,3.48-1.04,5.61-1.04s4,.35,5.61,1.04c1.61.69,2.87,1.7,3.8,3.02.92,1.32,1.42,2.94,1.48,4.85.04.93.07,1.9.07,2.89s-.02,1.94-.07,2.83c-.09,1.93-.59,3.55-1.52,4.86-.92,1.31-2.18,2.29-3.78,2.94-1.6.65-3.46.98-5.59.98ZM102.05,39.66c.72,0,1.29-.21,1.73-.63.43-.42.66-1.09.68-2,.04-.93.07-1.85.07-2.76s-.02-1.81-.07-2.7c-.02-.61-.14-1.11-.34-1.5-.21-.39-.48-.68-.83-.86-.35-.18-.76-.28-1.24-.28s-.86.09-1.22.28c-.36.18-.64.47-.85.86-.21.39-.32.89-.34,1.5-.02.89-.03,1.79-.03,2.7s.01,1.83.03,2.76c.04.91.28,1.58.7,2,.42.42.99.63,1.71.63Z"/>
      </g>
    </g>
  </g>
</svg>